<?xml version="1.0" encoding="UTF-8"?>
<svg version="1.1" xmlns="http://www.w3.org/2000/svg" width="48" height="48">
<path d="M0 0 C2.50074545 0.06023248 4.99643464 0.06156976 7.49780273 0.05444336 C9.09484523 0.06985046 10.69185958 0.08861695 12.28881836 0.11108398 C13.03164566 0.11239822 13.77447296 0.11371246 14.53981018 0.11506653 C19.42966858 0.27056273 22.0073137 1.2600516 25.44116211 4.74780273 C27.86959383 9.60466618 26.75373497 17.03109448 26.79125977 22.43212891 C26.80781172 24.17900929 26.83509206 25.92582216 26.87329102 27.67236328 C26.92814463 30.19395999 26.94994537 32.71397048 26.96459961 35.23608398 C26.98726898 36.01333328 27.00993835 36.79058258 27.03329468 37.59138489 C27.01845772 41.41216441 26.57638405 43.5462033 24.43383789 46.74047852 C20.61373905 49.30279314 17.48600079 49.45356563 13.03491211 49.37670898 C12.23259155 49.37912094 11.430271 49.3815329 10.6036377 49.38401794 C8.91254722 49.38304135 7.22142404 49.36969232 5.53051758 49.34472656 C2.94884138 49.31040483 0.3705887 49.32407741 -2.21118164 49.34350586 C-3.85833156 49.33660702 -5.50547268 49.32693429 -7.15258789 49.31420898 C-7.92042603 49.31916885 -8.68826416 49.32412872 -9.47937012 49.32923889 C-14.45151463 49.22051903 -17.07781415 48.31852208 -20.55883789 44.74780273 C-22.88859127 40.08829598 -21.91270638 33.20230866 -21.96386719 28.02783203 C-21.98539936 26.391549 -22.01944612 24.75537966 -22.06640625 23.11962891 C-22.50051726 7.85158925 -22.50051726 7.85158925 -19.66040039 3.17749023 C-14.62911295 -1.23650695 -6.30612751 -0.15962521 0 0 Z " fill="#FBFCFC" transform="translate(21.558837890625,-0.747802734375)"/>
<path d="M0 0 C0.680625 0.474375 1.36125 0.94875 2.0625 1.4375 C1.7325 2.4275 1.4025 3.4175 1.0625 4.4375 C-0.0925 4.911875 -1.2475 5.38625 -2.4375 5.875 C-4.42655532 6.77375528 -4.42655532 6.77375528 -5.9375 8.4375 C-6.87265647 12.43996968 -6.98262087 16.33794674 -6.9375 20.4375 C-10.98576731 19.21360523 -14.58260924 18.04872331 -17.9375 15.4375 C-19.08668449 11.01576476 -18.90556035 6.88835219 -17.9375 2.4375 C-13.14747398 -3.72454352 -6.4904005 -3.45234069 0 0 Z " fill="#1D1E1E" transform="translate(23.9375,15.5625)"/>
<path d="M0 0 C1.794375 1.0209375 1.794375 1.0209375 3.625 2.0625 C7.51064881 3.99504491 9.76356122 4.41214626 14 3 C15.68991979 2.0398183 17.36209288 1.04644066 19 0 C19.66 0 20.32 0 21 0 C21 3.96 21 7.92 21 12 C12.72774732 17.06212477 12.72774732 17.06212477 9.4375 16.78125 C5.91842408 15.65334105 3.15465756 13.91753695 0 12 C0 8.04 0 4.08 0 0 Z " fill="#181919" transform="translate(19,26)"/>
<path d="M0 0 C2.42260058 1.1978414 4.04206888 2.21359864 5.859375 4.23046875 C7.05088205 8.45330992 7.06040229 12.00938256 5.859375 16.23046875 C3.53006266 18.75824268 1.09455399 20.11309769 -2.140625 21.23046875 C-2.800625 21.23046875 -3.460625 21.23046875 -4.140625 21.23046875 C-4.10839844 20.49441406 -4.07617188 19.75835938 -4.04296875 19 C-4.0803522 15.85563666 -4.24902046 13.25343273 -5.140625 10.23046875 C-7.86070709 7.80805602 -10.736991 6.47502987 -14.140625 5.23046875 C-13.04074724 1.93083546 -12.68475752 1.61982103 -9.828125 -0.01953125 C-9.23386719 -0.3753125 -8.63960937 -0.73109375 -8.02734375 -1.09765625 C-4.98474735 -2.18114814 -2.932539 -1.05421566 0 0 Z " fill="#181919" transform="translate(34.140625,6.76953125)"/>
<path d="M0 0 C0.33 0.66 0.66 1.32 1 2 C3.58098768 3.07541153 6.15935132 4.05311711 8.8125 4.9375 C11 7 11 7 11.3125 9.640625 C11.3125 12.44374969 11.21349915 15.20553337 11 18 C11.62648438 17.69964844 12.25296875 17.39929688 12.8984375 17.08984375 C13.71570313 16.70957031 14.53296875 16.32929688 15.375 15.9375 C16.18710937 15.55464844 16.99921875 15.17179687 17.8359375 14.77734375 C18.55007812 14.52082031 19.26421875 14.26429687 20 14 C20.66 14.33 21.32 14.66 22 15 C22 19.29 22 23.58 22 28 C21.67 28 21.34 28 21 28 C21 24.04 21 20.08 21 16 C19.63875 16.845625 18.2775 17.69125 16.875 18.5625 C13.77245985 20.27910921 12.35153991 21 8.75 21 C5.89534737 19.9619445 3.5134464 18.70027256 1 17 C0.67 20.63 0.34 24.26 0 28 C-0.33 28 -0.66 28 -1 28 C-1.33 23.38 -1.66 18.76 -2 14 C0.05078125 12.76302083 2.1015625 11.52604167 4.15234375 10.2890625 C6.13772272 9.1226016 6.13772272 9.1226016 7 7 C6.278125 6.71125 5.55625 6.4225 4.8125 6.125 C2.20833333 5.08333333 -0.39583333 4.04166667 -3 3 C-2.01 2.67 -1.02 2.34 0 2 C0 1.34 0 0.68 0 0 Z " fill="#F5F6F6" transform="translate(19,10)"/>
<path d="M0 0 C0.33 0 0.66 0 1 0 C1 3.63 1 7.26 1 11 C2.44375 10.319375 3.8875 9.63875 5.375 8.9375 C7.8359375 7.77734375 7.8359375 7.77734375 10 7 C10.66 7.33 11.32 7.66 12 8 C12 12.29 12 16.58 12 21 C11.67 21 11.34 21 11 21 C11 17.04 11 13.08 11 9 C9.5975 9.845625 8.195 10.69125 6.75 11.5625 C2.56538462 14.08557692 2.56538462 14.08557692 -0.296875 13.65234375 C-0.85890625 13.43707031 -1.4209375 13.22179688 -2 13 C-1.34 13 -0.68 13 0 13 C0 8.71 0 4.42 0 0 Z " fill="#BFC2C3" transform="translate(29,17)"/>
<path d="M0 0 C0.33 0.66 0.66 1.32 1 2 C2.6635479 2.67441131 4.33066942 3.3400321 6 4 C7.36365283 4.95824253 8.70794169 5.94721175 10 7 C9.34 7 8.68 7 8 7 C8 7.99 8 8.98 8 10 C7.34 9.67 6.68 9.34 6 9 C6.33 8.34 6.66 7.68 7 7 C6.278125 6.71125 5.55625 6.4225 4.8125 6.125 C2.20833333 5.08333333 -0.39583333 4.04166667 -3 3 C-2.01 2.67 -1.02 2.34 0 2 C0 1.34 0 0.68 0 0 Z " fill="#C7CACB" transform="translate(19,10)"/>
<path d="M0 0 C0.66 0.33 1.32 0.66 2 1 C1.51917969 1.53109375 1.03835937 2.0621875 0.54296875 2.609375 C-1.38380447 5.59465402 -1.4958424 7.72350016 -1.6875 11.25 C-1.78611328 12.86648437 -1.78611328 12.86648437 -1.88671875 14.515625 C-1.92410156 15.33546875 -1.96148438 16.1553125 -2 17 C-2.33 17 -2.66 17 -3 17 C-3.27561917 14.73213358 -3.51971457 12.46041721 -3.75 10.1875 C-3.88921875 8.92292969 -4.0284375 7.65835937 -4.171875 6.35546875 C-4 3 -4 3 -2.015625 1.05078125 C-1.35046875 0.70402344 -0.6853125 0.35726563 0 0 Z " fill="#C3C5C6" transform="translate(21,21)"/>
</svg>
